<?xml version="1.0" encoding="utf-8"?>
<!-- Generator: Adobe Illustrator 25.3.1, SVG Export Plug-In . SVG Version: 6.00 Build 0)  -->
<svg version="1.1" id="图层_1" xmlns="http://www.w3.org/2000/svg" xmlns:xlink="http://www.w3.org/1999/xlink" x="0px" y="0px"
	 viewBox="0 0 500 500" style="enable-background:new 0 0 500 500;" xml:space="preserve">
<style type="text/css">
	.st0{fill:url(#SVGID_1_);}
	.st1{fill:url(#SVGID_2_);}
	.st2{fill:url(#SVGID_3_);}
	.st3{fill:url(#SVGID_4_);}
	.st4{fill:url(#SVGID_5_);}
	.st5{fill:url(#SVGID_6_);}
	.st6{fill:url(#SVGID_7_);}
	.st7{fill:url(#SVGID_8_);}
	.st8{fill:url(#SVGID_9_);}
	.st9{fill:#000D45;}
	.st10{font-family:'SegoePrint-Bold';}
	.st11{font-size:65.3353px;}
	.st12{fill:#2E80FF;stroke:#FFFFFF;stroke-miterlimit:10;}
</style>
<g>
	
		<linearGradient id="SVGID_1_" gradientUnits="userSpaceOnUse" x1="222.8603" y1="434.737" x2="327.9236" y2="434.737" gradientTransform="matrix(1 0 0 -1 0 502)">
		<stop  offset="0" style="stop-color:#2A78BB"/>
		<stop  offset="0.9461" style="stop-color:#0F92CD"/>
	</linearGradient>
	<path class="st0" d="M419.7,104.4c-4.8-5.2-10.5-9.7-16.8-13.2c-9.5-5.2-20.5-8.2-32.1-8.2c-20.7,0-39.1,9.4-51.4,24.1
		c-2.8-0.7-5.7-1.3-8.5-1.9c-18.5-4-37.7-6-57.5-6c-23.9,0-47,3.1-69.1,8.7c14.1-28.3,35.4-52.6,61.5-70.5
		c5.7-3.9,11.5-7.5,17.6-10.7c52.2,3.1,99.7,24.1,136.2,57C406.7,90.2,413.4,97.1,419.7,104.4z"/>
	
		<linearGradient id="SVGID_2_" gradientUnits="userSpaceOnUse" x1="179.2168" y1="434.0146" x2="140.2417" y2="252.6958" gradientTransform="matrix(1 0 0 -1 0 502)">
		<stop  offset="0" style="stop-color:#00BFE1"/>
		<stop  offset="1" style="stop-color:#93CE89"/>
	</linearGradient>
	<path class="st1" d="M263.4,26.8c-6.1,3.2-11.9,6.8-17.6,10.7c-26,17.8-47.3,42.1-61.5,70.5c-12.6,25-19.6,53.3-19.6,83.3
		c0,2.8,0.1,5.5,0.2,8.3c0.2,1.5,0.4,3.1,0.4,4.6c0.1,1.4,0.1,2.8,0.1,4.1c0,0.1,0,0.1,0,0.1c0,2-0.1,4-0.3,6
		c-3,32.7-29.5,58.7-62.6,60.5v0.1c-1.2,0-2.5,0.1-3.9,0.1c-1.8,0-3.6-0.1-5.5-0.2c-7.1-24.4-10.8-50.1-10.8-76.7
		c0-14.3,1.1-28.2,3.2-41.9v-0.1c0.7-4.6,1.5-9.2,2.4-13.7c4.9-24,13-47,23.9-68.3l0.1-0.1c32.5-25.5,72.2-42.3,115.6-46.5
		c7.4-0.8,14.9-1.2,22.5-1.2C254.5,26.3,258.9,26.5,263.4,26.8z"/>
	
		<linearGradient id="SVGID_3_" gradientUnits="userSpaceOnUse" x1="100.3888" y1="132.148" x2="73.2757" y2="228.7384" gradientTransform="matrix(1 0 0 -1 0 502)">
		<stop  offset="0" style="stop-color:#2A78BB"/>
		<stop  offset="0.9461" style="stop-color:#0F92CD"/>
	</linearGradient>
	<path class="st2" d="M153,382.3c-1.7,0.1-3.3,0.1-5,0.1c-26.5,0-51.6-5.5-74.4-15.4c-7-3.1-13.7-6.5-20.3-10.4
		c-17.2-31.7-27-68-27-106.6c0-12.1,0.9-23.9,2.8-35.4c1.2-7.6,2.8-15,4.7-22.3c-1.2,5.1-1.9,10.5-1.9,15.9c0,0.8,0,1.6,0.1,2.4
		c1.2,34,27.7,61.5,61.2,64.1c1,3.5,2,6.9,3.2,10.3C108.5,321.5,128,354.5,153,382.3z"/>
	
		<linearGradient id="SVGID_4_" gradientUnits="userSpaceOnUse" x1="405.8041" y1="158.4594" x2="349.8833" y2="109.3169" gradientTransform="matrix(1 0 0 -1 0 502)">
		<stop  offset="0" style="stop-color:#2A78BB"/>
		<stop  offset="0.9461" style="stop-color:#0F92CD"/>
	</linearGradient>
	<path class="st3" d="M445.5,358.8c-25.3,45.4-66,81.1-115,100c16.7-12.1,27.4-31.7,27.4-53.9c0-8.8-1.7-17.2-4.8-24.9
		c0.7-0.8,1.5-1.6,2.2-2.5c26.9-30.7,47.1-67.5,58.3-108.1c16.6,24.1,27.6,52.4,31.3,82.8C445.1,354.5,445.3,356.6,445.5,358.8z"/>
	
		<linearGradient id="SVGID_5_" gradientUnits="userSpaceOnUse" x1="80.1238" y1="401.3967" x2="63.1781" y2="267.5258" gradientTransform="matrix(1 0 0 -1 0 502)">
		<stop  offset="5.892949e-03" style="stop-color:#00B9D7"/>
		<stop  offset="1" style="stop-color:#18BF93"/>
	</linearGradient>
	<path class="st4" d="M82.4,198.1c0,26.6,3.8,52.4,10.8,76.7c-33.5-2.7-60.1-30.2-61.2-64.1c-0.1-0.8-0.1-1.6-0.1-2.4
		c0-5.5,0.7-10.8,1.9-15.9c0.1-0.2,0.1-0.5,0.2-0.8c0.3-1.2,0.7-2.5,1.1-3.6c0.1-0.4,0.2-0.7,0.3-1c13.2-45.3,40.3-84.5,76.4-112.9
		c-10.8,21.3-18.9,44.3-23.9,68.3c-0.9,4.6-1.7,9.2-2.4,13.7v0.1C83.4,169.9,82.4,183.8,82.4,198.1z"/>
	
		<linearGradient id="SVGID_6_" gradientUnits="userSpaceOnUse" x1="103.8972" y1="183.9109" x2="248.2928" y2="-5.8663" gradientTransform="matrix(1 0 0 -1 0 502)">
		<stop  offset="0" style="stop-color:#5C459D"/>
		<stop  offset="1" style="stop-color:#7F4579"/>
	</linearGradient>
	<path class="st5" d="M301,467.8c-5.7,1.4-11.4,2.5-17.3,3.4c-0.1,0-0.1,0-0.1,0c-11,1.6-22.2,2.5-33.6,2.5
		c-18.3,0-36.1-2.2-53.1-6.3c-49.5-12.1-92.5-40.6-123-79.4c-7.8-9.8-14.6-20.3-20.7-31.3c6.5,3.9,13.3,7.3,20.3,10.4
		c22.8,9.9,47.9,15.4,74.4,15.4c1.7,0,3.3,0,5-0.1c24.1,26.8,53.4,48.9,86.3,64.7h0.1c3.7,1.7,7.3,3.4,11.1,5
		C266.6,458.8,283.5,464.2,301,467.8z"/>
	
		<linearGradient id="SVGID_7_" gradientUnits="userSpaceOnUse" x1="207.1669" y1="115.177" x2="313.9247" y2="96.5368" gradientTransform="matrix(1 0 0 -1 0 502)">
		<stop  offset="0" style="stop-color:#B03D89"/>
		<stop  offset="1" style="stop-color:#B33F6C"/>
	</linearGradient>
	<path class="st6" d="M357.9,404.9c0,22.2-10.8,41.7-27.4,53.9c0,0.1,0,0.1-0.1,0c-9.5,3.6-19.3,6.7-29.4,9
		c-17.5-3.6-34.4-9-50.5-15.9c-3.8-1.6-7.4-3.3-11.1-5h-0.1c-32.9-15.7-62.3-37.8-86.3-64.7c37.1-0.9,71.6-12.7,100.2-32.4
		c0.1,0.1,0.1,0.1,0.1,0.1c10.8-7.5,23.8-11.9,37.9-11.9c27.2,0,50.5,16.2,60.9,39.5c0.4,0.8,0.7,1.6,1,2.4
		C356.2,387.8,357.9,396.1,357.9,404.9z"/>
	
		<linearGradient id="SVGID_8_" gradientUnits="userSpaceOnUse" x1="322.9385" y1="397.5293" x2="490.4178" y2="177.4136" gradientTransform="matrix(1 0 0 -1 0 502)">
		<stop  offset="0" style="stop-color:#F8DA36"/>
		<stop  offset="1" style="stop-color:#D35555"/>
	</linearGradient>
	<path class="st7" d="M473.7,250c0,35.4-8.2,68.9-22.8,98.6c-1.7,3.4-3.5,6.8-5.4,10.2c-0.1-2.2-0.4-4.4-0.7-6.5
		c-3.6-30.5-14.7-58.7-31.3-82.8c-15.2-22.2-35.1-40.9-58.3-54.8c-7.6-1.8-14.8-4.9-21.1-9.1v0c-1.8-1.2-3.6-2.4-5.2-3.8
		c-15.2-12.2-24.9-31-24.9-52c0-13.5,4-26.1,11-36.6c1.3-2.1,2.8-4.1,4.4-6c37.3,9.2,71.6,25.9,101.2,48.6c5,3.8,9.9,7.8,14.5,11.9
		c12.2,10.8,23.5,22.5,33.7,35.3C471.9,218.1,473.7,233.9,473.7,250z"/>
	
		<linearGradient id="SVGID_9_" gradientUnits="userSpaceOnUse" x1="350.8719" y1="421.1198" x2="452.857" y2="287.0825" gradientTransform="matrix(1 0 0 -1 0 502)">
		<stop  offset="0" style="stop-color:#E1C131"/>
		<stop  offset="0.9919" style="stop-color:#F2572E"/>
	</linearGradient>
	<path class="st8" d="M468.7,202.9c-10.2-12.7-21.5-24.5-33.7-35.3c-4.7-4.1-9.5-8.1-14.5-11.9c-29.6-22.7-63.9-39.4-101.2-48.6
		C331.6,92.3,350.1,83,370.7,83c11.6,0,22.6,3,32.1,8.2c6.3,3.5,12,7.9,16.8,13.2c1.2,1.2,2.3,2.5,3.4,3.9
		C445.2,135.3,461.1,167.5,468.7,202.9z"/>
</g>
<g>
	<text transform="matrix(1 0 0 1 183.8926 317.1807)" class="st9 st10 st11">ZZH</text>
	<text transform="matrix(1 0 0 1 183.8926 317.1807)" class="st12 st10 st11">ZZH</text>
</g>
</svg>
