<svg id="图层_1" data-name="图层 1" xmlns="http://www.w3.org/2000/svg" xmlns:xlink="http://www.w3.org/1999/xlink" viewBox="0 0 447.4 447.33"><defs><style>.cls-1{fill:url(#未命名的渐变);}.cls-2{fill:url(#未命名的渐变_2);}.cls-3{fill:url(#未命名的渐变_3);}.cls-4{fill:url(#未命名的渐变_4);}.cls-5{fill:url(#未命名的渐变_5);}.cls-6{fill:url(#未命名的渐变_6);}.cls-7{fill:url(#未命名的渐变_7);}.cls-8{fill:url(#未命名的渐变_8);}.cls-9{fill:url(#未命名的渐变_9);}.cls-10,.cls-11{font-size:65.34px;font-family:SegoePrint-Bold, Segoe Print;font-weight:700;}.cls-10{fill:#000d45;}.cls-11{fill:#2e80ff;stroke:#fff;stroke-miterlimit:10;}</style><linearGradient id="未命名的渐变" x1="222.86" y1="434.74" x2="327.92" y2="434.74" gradientTransform="matrix(1, 0, 0, -1, 0, 502)" gradientUnits="userSpaceOnUse"><stop offset="0" stop-color="#2a78bb"/><stop offset="0.95" stop-color="#0f92cd"/></linearGradient><linearGradient id="未命名的渐变_2" x1="179.22" y1="434.01" x2="140.24" y2="252.7" gradientTransform="matrix(1, 0, 0, -1, 0, 502)" gradientUnits="userSpaceOnUse"><stop offset="0" stop-color="#00bfe1"/><stop offset="1" stop-color="#93ce89"/></linearGradient><linearGradient id="未命名的渐变_3" x1="100.39" y1="132.15" x2="73.28" y2="228.74" xlink:href="#未命名的渐变"/><linearGradient id="未命名的渐变_4" x1="405.8" y1="158.46" x2="349.88" y2="109.32" xlink:href="#未命名的渐变"/><linearGradient id="未命名的渐变_5" x1="80.12" y1="401.4" x2="63.18" y2="267.53" gradientTransform="matrix(1, 0, 0, -1, 0, 502)" gradientUnits="userSpaceOnUse"><stop offset="0.01" stop-color="#00b9d7"/><stop offset="1" stop-color="#18bf93"/></linearGradient><linearGradient id="未命名的渐变_6" x1="103.9" y1="183.91" x2="248.29" y2="-5.87" gradientTransform="matrix(1, 0, 0, -1, 0, 502)" gradientUnits="userSpaceOnUse"><stop offset="0" stop-color="#5c459d"/><stop offset="1" stop-color="#7f4579"/></linearGradient><linearGradient id="未命名的渐变_7" x1="207.17" y1="115.18" x2="313.92" y2="96.54" gradientTransform="matrix(1, 0, 0, -1, 0, 502)" gradientUnits="userSpaceOnUse"><stop offset="0" stop-color="#b03d89"/><stop offset="1" stop-color="#b33f6c"/></linearGradient><linearGradient id="未命名的渐变_8" x1="322.94" y1="397.53" x2="490.42" y2="177.41" gradientTransform="matrix(1, 0, 0, -1, 0, 502)" gradientUnits="userSpaceOnUse"><stop offset="0" stop-color="#f8da36"/><stop offset="1" stop-color="#d35555"/></linearGradient><linearGradient id="未命名的渐变_9" x1="350.87" y1="421.12" x2="452.86" y2="287.08" gradientTransform="matrix(1, 0, 0, -1, 0, 502)" gradientUnits="userSpaceOnUse"><stop offset="0" stop-color="#e1c131"/><stop offset="0.99" stop-color="#f2572e"/></linearGradient></defs><path class="cls-1" d="M419.7,104.36a67.65,67.65,0,0,0-16.8-13.2,66.89,66.89,0,0,0-83.5,15.9c-2.8-.7-5.7-1.3-8.5-1.9a271.58,271.58,0,0,0-57.5-6,280.73,280.73,0,0,0-69.1,8.7,186.71,186.71,0,0,1,61.5-70.5,175.62,175.62,0,0,1,17.6-10.7,222.83,222.83,0,0,1,136.2,57A245.52,245.52,0,0,1,419.7,104.36Z" transform="translate(-26.3 -26.34)"/><path class="cls-2" d="M263.4,26.76a175.62,175.62,0,0,0-17.6,10.7A186.92,186.92,0,0,0,184.3,108a184.49,184.49,0,0,0-19.6,83.3c0,2.8.1,5.5.2,8.3a35.7,35.7,0,0,1,.4,4.6c.1,1.4.1,2.8.1,4.1v.1q0,3-.3,6a66.65,66.65,0,0,1-62.6,60.5v.1c-1.2,0-2.5.1-3.9.1-1.8,0-3.6-.1-5.5-.2a277.11,277.11,0,0,1-7.6-118.6v-.1c.7-4.6,1.5-9.2,2.4-13.7a267.48,267.48,0,0,1,23.9-68.3l.1-.1a221.61,221.61,0,0,1,115.6-46.5,209.2,209.2,0,0,1,22.5-1.2C254.5,26.26,258.9,26.46,263.4,26.76Z" transform="translate(-26.3 -26.34)"/><path class="cls-3" d="M153,382.26c-1.7.1-3.3.1-5,.1A186.14,186.14,0,0,1,73.6,367a194.06,194.06,0,0,1-20.3-10.4A222.84,222.84,0,0,1,26.3,250a216.86,216.86,0,0,1,2.8-35.4c1.2-7.6,2.8-15,4.7-22.3a69.88,69.88,0,0,0-1.9,15.9,19.27,19.27,0,0,0,.1,2.4,66.57,66.57,0,0,0,61.2,64.1c1,3.5,2,6.9,3.2,10.3A275,275,0,0,0,153,382.26Z" transform="translate(-26.3 -26.34)"/><path class="cls-4" d="M445.5,358.76a224.44,224.44,0,0,1-115,100A66.79,66.79,0,0,0,353.1,380c.7-.8,1.5-1.6,2.2-2.5a275,275,0,0,0,58.3-108.1,185.38,185.38,0,0,1,31.3,82.8C445.1,354.46,445.3,356.56,445.5,358.76Z" transform="translate(-26.3 -26.34)"/><path class="cls-5" d="M82.4,198.06a277.07,277.07,0,0,0,10.8,76.7A66.64,66.64,0,0,1,32,210.66a19.27,19.27,0,0,1-.1-2.4,69.21,69.21,0,0,1,1.9-15.9c.1-.2.1-.5.2-.8.3-1.2.7-2.5,1.1-3.6.1-.4.2-.7.3-1a223.15,223.15,0,0,1,76.4-112.9,275.34,275.34,0,0,0-23.9,68.3c-.9,4.6-1.7,9.2-2.4,13.7v.1A275.53,275.53,0,0,0,82.4,198.06Z" transform="translate(-26.3 -26.34)"/><path class="cls-6" d="M301,467.76c-5.7,1.4-11.4,2.5-17.3,3.4h-.1a233.12,233.12,0,0,1-33.6,2.5,225.07,225.07,0,0,1-196.8-117,184.43,184.43,0,0,0,94.7,25.8c1.7,0,3.3,0,5-.1a278.06,278.06,0,0,0,86.3,64.7h.1c3.7,1.7,7.3,3.4,11.1,5A280.24,280.24,0,0,0,301,467.76Z" transform="translate(-26.3 -26.34)"/><path class="cls-7" d="M357.9,404.86a66.65,66.65,0,0,1-27.4,53.9c0,.1,0,.1-.1,0a222.38,222.38,0,0,1-29.4,9,262.52,262.52,0,0,1-50.5-15.9c-3.8-1.6-7.4-3.3-11.1-5h-.1a273.86,273.86,0,0,1-86.3-64.7,184.09,184.09,0,0,0,100.2-32.4l.1.1a66.57,66.57,0,0,1,98.8,27.6,24.43,24.43,0,0,1,1,2.4A67.81,67.81,0,0,1,357.9,404.86Z" transform="translate(-26.3 -26.34)"/><path class="cls-8" d="M473.7,250a223,223,0,0,1-22.8,98.6q-2.55,5.1-5.4,10.2c-.1-2.2-.4-4.4-.7-6.5a183.77,183.77,0,0,0-31.3-82.8,187.29,187.29,0,0,0-58.3-54.8,65.25,65.25,0,0,1-21.1-9.1h0a49.52,49.52,0,0,1-5.2-3.8,66.54,66.54,0,0,1-24.9-52,65.74,65.74,0,0,1,11-36.6,51.3,51.3,0,0,1,4.4-6,273.88,273.88,0,0,1,101.2,48.6c5,3.8,9.9,7.8,14.5,11.9A281.3,281.3,0,0,1,468.8,203,234.13,234.13,0,0,1,473.7,250Z" transform="translate(-26.3 -26.34)"/><path class="cls-9" d="M468.7,202.86a288.32,288.32,0,0,0-33.7-35.3c-4.7-4.1-9.5-8.1-14.5-11.9a273.88,273.88,0,0,0-101.2-48.6,66.89,66.89,0,0,1,83.5-15.9,65.41,65.41,0,0,1,16.8,13.2,43.18,43.18,0,0,1,3.4,3.9A222.13,222.13,0,0,1,468.7,202.86Z" transform="translate(-26.3 -26.34)"/><text class="cls-10" transform="translate(157.59 290.84)">ZZH</text><text class="cls-11" transform="translate(157.59 290.84)">ZZH</text></svg>